<svg width="48" height="48" viewBox="0 0 48 48" fill="none" xmlns="http://www.w3.org/2000/svg">
<path d="M42 20H6M32 4V12M16 4V12M15.6 44H32.4C35.7603 44 37.4405 44 38.7239 43.346C39.8529 42.7708 40.7708 41.8529 41.346 40.7239C42 39.4405 42 37.7603 42 34.4V17.6C42 14.2397 42 12.5595 41.346 11.2761C40.7708 10.1471 39.8529 9.2292 38.7239 8.65396C37.4405 8 35.7603 8 32.4 8H15.6C12.2397 8 10.5595 8 9.27606 8.65396C8.14708 9.2292 7.2292 10.1471 6.65396 11.2761C6 12.5595 6 14.2397 6 17.6V34.4C6 37.7603 6 39.4405 6.65396 40.7239C7.2292 41.8529 8.14708 42.7708 9.27606 43.346C10.5595 44 12.2397 44 15.6 44Z" stroke="#1570EF" stroke-width="2" stroke-linecap="round" stroke-linejoin="round"/>
<path d="M30 38V32.75M24 38V30.5M18 38L18 35M25.055 26.7706L28.9313 28.2243M23.0991 27.0507L18.9002 30.1999M30.7955 27.8295C31.2348 28.2688 31.2348 28.9812 30.7955 29.4205C30.3562 29.8598 29.6438 29.8598 29.2045 29.4205C28.7652 28.9812 28.7652 28.2688 29.2045 27.8295C29.6438 27.3902 30.3562 27.3902 30.7955 27.8295ZM18.7955 30.0795C19.2348 30.5188 19.2348 31.2312 18.7955 31.6705C18.3562 32.1098 17.6438 32.1098 17.2045 31.6705C16.7652 31.2312 16.7652 30.5188 17.2045 30.0795C17.6438 29.6402 18.3562 29.6402 18.7955 30.0795ZM24.7955 25.5795C25.2348 26.0188 25.2348 26.7312 24.7955 27.1705C24.3562 27.6098 23.6438 27.6098 23.2045 27.1705C22.7652 26.7312 22.7652 26.0188 23.2045 25.5795C23.6438 25.1402 24.3562 25.1402 24.7955 25.5795Z" stroke="#1570EF" stroke-width="1.5" stroke-linecap="round" stroke-linejoin="round"/>
</svg>
