<svg width="49" height="48" viewBox="0 0 49 48" fill="none" xmlns="http://www.w3.org/2000/svg">
<path d="M32.44 38.7917H32.095C29.1968 38.7917 27.7476 38.7917 26.6406 38.2277C25.6669 37.7315 24.8752 36.9398 24.3791 35.9661C23.815 34.8591 23.815 33.41 23.815 30.5117V19.4717C23.815 16.5734 23.815 15.1243 24.3791 14.0173C24.8752 13.0436 25.6669 12.2519 26.6406 11.7557C27.7476 11.1917 29.1968 11.1917 32.095 11.1917H32.44M32.44 38.7917C32.44 40.6971 33.9847 42.2417 35.89 42.2417C37.7954 42.2417 39.34 40.6971 39.34 38.7917C39.34 36.8863 37.7954 35.3417 35.89 35.3417C33.9847 35.3417 32.44 36.8863 32.44 38.7917ZM32.44 11.1917C32.44 13.0971 33.9847 14.6417 35.89 14.6417C37.7954 14.6417 39.34 13.0971 39.34 11.1917C39.34 9.28632 37.7954 7.7417 35.89 7.7417C33.9847 7.7417 32.44 9.28632 32.44 11.1917ZM15.19 24.9917L32.44 24.9917M15.19 24.9917C15.19 26.8971 13.6454 28.4417 11.74 28.4417C9.83466 28.4417 8.29004 26.8971 8.29004 24.9917C8.29004 23.0863 9.83466 21.5417 11.74 21.5417C13.6454 21.5417 15.19 23.0863 15.19 24.9917ZM32.44 24.9917C32.44 26.8971 33.9847 28.4417 35.89 28.4417C37.7954 28.4417 39.34 26.8971 39.34 24.9917C39.34 23.0863 37.7954 21.5417 35.89 21.5417C33.9847 21.5417 32.44 23.0863 32.44 24.9917Z" stroke="#1570EF" stroke-width="2" stroke-linecap="round" stroke-linejoin="round"/>
</svg>
